<svg width="20.000000" height="20.000000" viewBox="0 0 20 20" fill="none" xmlns="http://www.w3.org/2000/svg" xmlns:xlink="http://www.w3.org/1999/xlink">
	<desc>
			Created with Pixso.
	</desc>
	<defs/>
	<path id="icon/action/account_circle_24px" d="M10 0C4.47998 0 0 4.48001 0 10C0 15.52 4.47998 20 10 20C15.52 20 20 15.52 20 10C20 4.48001 15.52 0 10 0ZM10 12.5C11.46 12.5 14.9301 13.09 16.36 14.83C17.38 13.49 18 11.82 18 10C18 5.59 14.41 2 10 2C5.58997 2 2 5.59 2 10C2 11.82 2.62 13.49 3.64001 14.83C5.06995 13.09 8.54004 12.5 10 12.5ZM10 4C8.06006 4 6.5 5.56 6.5 7.5C6.5 9.44 8.06006 11 10 11C11.9399 11 13.5 9.44 13.5 7.5C13.5 5.56 11.9399 4 10 4ZM8.5 7.5C8.5 8.32999 9.17004 9 10 9C10.83 9 11.5 8.32999 11.5 7.5C11.5 6.67001 10.83 6 10 6C9.17004 6 8.5 6.67001 8.5 7.5ZM5.06995 16.28C5.5 15.38 8.12 14.5 10 14.5C11.88 14.5 14.51 15.38 14.9301 16.28C13.5699 17.36 11.86 18 10 18C8.14001 18 6.43005 17.36 5.06995 16.28Z" clip-rule="evenodd" fill="#FFFFFF" fill-opacity="1.000000" fill-rule="evenodd"/>
</svg>
