<svg width="108.000000" height="24.000000" viewBox="0 0 108 24" fill="none" xmlns="http://www.w3.org/2000/svg" xmlns:xlink="http://www.w3.org/1999/xlink">
	<desc>
			Created with Pixso.
	</desc>
	<defs>
		<clipPath id="clip1_71">
			<rect rx="0.000000" width="107.000000" height="23.000000" transform="translate(0.500000 0.500000)" fill="white" fill-opacity="0"/>
		</clipPath>
	</defs>
	<g clip-path="url(#clip1_71)">
		<path d="M9.85 22.6L0.96 22.6L0.96 22.15C3.96 21.76 4.89 20.39 4.89 17.16L4.89 4.16C4.89 2.24 3.71 0.77 0.96 0.71L0.96 0.29L9.98 0.29L16.57 16.74L16.73 16.74L22.78 0.29L30.94 0.29L30.94 0.71C28.25 0.8 27.61 1.35 27.61 2.56L27.61 20.32C27.61 21.54 28.25 22.05 30.94 22.15L30.94 22.6L19.9 22.6L19.9 22.15C22.17 22.05 22.97 21.6 22.97 20.32L22.97 2.47L22.81 2.47L15.36 22.63L14.2 22.63L5.88 2.47L5.69 2.47L5.69 17.16C5.69 20.39 6.65 21.73 9.85 22.15L9.85 22.6Z" fill="#FFFFFF" fill-opacity="1.000000" fill-rule="evenodd"/>
		<path d="M53.66 22.95L52.12 22.95L37.72 4.32L37.69 4.32L37.69 17.16C37.69 20.39 38.72 21.8 41.98 22.15L41.98 22.6L32.96 22.6L32.96 22.15C35.96 21.76 36.89 20.39 36.89 17.16L36.89 4.42C36.89 2.47 35.71 0.84 32.96 0.71L32.96 0.29L40.51 0.29L52.83 16.32L52.86 16.32L52.86 5.7C52.86 2.53 51.68 1.09 48.44 0.71L48.44 0.29L57.53 0.29L57.53 0.71C54.52 1.16 53.66 2.53 53.66 5.7L53.66 22.95Z" fill="#FFFFFF" fill-opacity="1.000000" fill-rule="evenodd"/>
		<path d="M75.69 22.6L63.6 22.6L63.6 22.15C66.41 22.08 67.31 21.54 67.31 20.32L67.31 0.87L66.51 0.87C64.08 0.87 62.12 3.24 59.85 7.68L59.37 7.62L59.56 0.29L79.69 0.29L79.85 7.62L79.37 7.68C77.13 3.33 75.21 0.87 72.75 0.87L71.98 0.87L71.98 20.32C71.98 21.54 72.84 22.08 75.69 22.15L75.69 22.6Z" fill="#FFFFFF" fill-opacity="1.000000" fill-rule="evenodd"/>
		<path d="M103.66 22.95L102.12 22.95L87.72 4.32L87.69 4.32L87.69 17.16C87.69 20.39 88.72 21.8 91.98 22.15L91.98 22.6L82.96 22.6L82.96 22.15C85.96 21.76 86.89 20.39 86.89 17.16L86.89 4.42C86.89 2.47 85.71 0.84 82.96 0.71L82.96 0.29L90.51 0.29L102.83 16.32L102.86 16.32L102.86 5.7C102.86 2.53 101.68 1.09 98.44 0.71L98.44 0.29L107.53 0.29L107.53 0.71C104.52 1.16 103.66 2.53 103.66 5.7L103.66 22.95Z" fill="#FFFFFF" fill-opacity="1.000000" fill-rule="evenodd"/>
	</g>
</svg>
